<svg id="Layer_1" enable-background="new 0 0 512 512" height="512" viewBox="0 0 512 512" width="512" xmlns="http://www.w3.org/2000/svg"><g><g fill="#f25817"><path d="m72.928 368.312c-4.142 0-7.5 3.358-7.5 7.5v5.048c0 4.142 3.358 7.5 7.5 7.5s7.5-3.358 7.5-7.5v-5.048c0-4.142-3.358-7.5-7.5-7.5z"/><path d="m72.928 442.881c-4.142 0-7.5 3.358-7.5 7.5v5.048c0 4.142 3.358 7.5 7.5 7.5s7.5-3.358 7.5-7.5v-5.048c0-4.142-3.358-7.5-7.5-7.5z"/><path d="m97.537 398.541c1.918 0 3.836-.731 5.3-2.194l3.573-3.569c2.931-2.927 2.933-7.676.006-10.606-2.928-2.93-7.677-2.933-10.606-.006l-3.573 3.569c-2.931 2.927-2.933 7.676-.006 10.606 1.464 1.467 3.385 2.2 5.306 2.2z"/><path d="m43.019 434.894-3.573 3.569c-2.931 2.927-2.933 7.676-.006 10.606 1.465 1.466 3.385 2.2 5.306 2.2 1.918 0 3.836-.731 5.3-2.194l3.573-3.569c2.931-2.927 2.933-7.676.006-10.606-2.927-2.931-7.676-2.934-10.606-.006z"/><path d="m112.783 408.12h-5.054c-4.142 0-7.5 3.358-7.5 7.5s3.358 7.5 7.5 7.5h5.054c4.142 0 7.5-3.358 7.5-7.5s-3.358-7.5-7.5-7.5z"/><path d="m45.626 415.62c0-4.142-3.358-7.5-7.5-7.5h-5.054c-4.142 0-7.5 3.358-7.5 7.5s3.358 7.5 7.5 7.5h5.054c4.143 0 7.5-3.358 7.5-7.5z"/><path d="m102.837 434.894c-2.931-2.927-7.68-2.925-10.606.006-2.927 2.931-2.925 7.679.006 10.606l3.573 3.569c1.464 1.463 3.382 2.194 5.3 2.194 1.92 0 3.842-.733 5.306-2.2 2.927-2.931 2.925-7.679-.006-10.606z"/><path d="m50.046 382.166c-2.931-2.927-7.68-2.925-10.606.006-2.927 2.931-2.925 7.679.006 10.606l3.573 3.569c1.464 1.463 3.382 2.194 5.3 2.194 1.92 0 3.842-.733 5.306-2.2 2.927-2.931 2.925-7.679-.006-10.606z"/><path d="m420.242 3.677c-4.142 0-7.5 3.358-7.5 7.5v5.047c0 4.142 3.358 7.5 7.5 7.5s7.5-3.358 7.5-7.5v-5.047c0-4.142-3.358-7.5-7.5-7.5z"/><path d="m420.242 78.245c-4.142 0-7.5 3.358-7.5 7.5v5.048c0 4.142 3.358 7.5 7.5 7.5s7.5-3.358 7.5-7.5v-5.048c0-4.142-3.358-7.5-7.5-7.5z"/><path d="m444.851 33.905c1.918 0 3.836-.731 5.3-2.194l3.573-3.569c2.931-2.927 2.933-7.676.006-10.606-2.928-2.93-7.677-2.933-10.606-.006l-3.573 3.569c-2.931 2.927-2.933 7.676-.006 10.606 1.464 1.467 3.385 2.2 5.306 2.2z"/><path d="m390.333 70.258-3.573 3.569c-2.931 2.927-2.934 7.676-.007 10.606 1.465 1.467 3.386 2.2 5.307 2.2 1.918 0 3.836-.731 5.3-2.193l3.573-3.569c2.931-2.927 2.934-7.676.007-10.606-2.927-2.932-7.676-2.934-10.607-.007z"/><path d="m460.097 43.485h-5.054c-4.142 0-7.5 3.358-7.5 7.5s3.358 7.5 7.5 7.5h5.054c4.142 0 7.5-3.358 7.5-7.5s-3.358-7.5-7.5-7.5z"/><path d="m392.94 50.985c0-4.142-3.358-7.5-7.5-7.5h-5.054c-4.142 0-7.5 3.358-7.5 7.5s3.358 7.5 7.5 7.5h5.054c4.143 0 7.5-3.358 7.5-7.5z"/><path d="m450.15 70.258c-2.93-2.927-7.679-2.924-10.606.007s-2.924 7.679.007 10.606l3.573 3.569c1.464 1.462 3.382 2.193 5.3 2.193 1.921 0 3.842-.733 5.307-2.2 2.927-2.931 2.924-7.679-.007-10.606z"/><path d="m390.333 31.711c1.464 1.463 3.382 2.194 5.3 2.194 1.92 0 3.842-.733 5.306-2.2 2.927-2.931 2.925-7.679-.006-10.606l-3.573-3.569c-2.93-2.927-7.679-2.925-10.606.006s-2.925 7.679.006 10.606z"/></g><path d="m261.458 3.236 16.448 30.074c.571 1.044 1.429 1.902 2.473 2.473l30.074 16.448c4.315 2.36 4.315 8.557 0 10.917l-30.073 16.449c-1.044.571-1.902 1.429-2.473 2.473l-16.448 30.074c-2.36 4.315-8.557 4.315-10.917 0l-16.449-30.074c-.571-1.044-1.429-1.902-2.473-2.473l-30.074-16.448c-4.315-2.36-4.315-8.557 0-10.917l30.074-16.448c1.044-.571 1.902-1.429 2.473-2.473l16.448-30.074c2.361-4.316 8.557-4.316 10.917-.001z" fill="#fca309"/><path d="m310.454 52.232-30.074-16.448c-1.044-.571-1.902-1.429-2.473-2.473l-16.449-30.075c-2.36-4.315-8.557-4.315-10.917 0l-7.407 13.543 5.056 9.245c3.173 5.802 7.943 10.572 13.745 13.745 14.167 7.748 14.167 28.095 0 35.843-5.802 3.173-10.572 7.943-13.745 13.745l-5.056 9.245 7.407 13.543c2.36 4.315 8.557 4.315 10.917 0l16.448-30.074c.571-1.044 1.429-1.902 2.473-2.473l30.074-16.448c4.316-2.361 4.316-8.558.001-10.918z" fill="#fd8e09"/><path d="m63.148 90.858 16.448 30.074c.571 1.044 1.429 1.902 2.473 2.473l30.074 16.448c4.315 2.36 4.315 8.557 0 10.917l-30.073 16.449c-1.044.571-1.902 1.429-2.473 2.473l-16.448 30.074c-2.36 4.315-8.557 4.315-10.917 0l-16.448-30.074c-.571-1.044-1.429-1.902-2.473-2.473l-30.075-16.448c-4.315-2.36-4.315-8.557 0-10.917l30.074-16.448c1.044-.571 1.902-1.429 2.473-2.473l16.448-30.074c2.361-4.316 8.558-4.316 10.917-.001z" fill="#fca309"/><path d="m112.144 139.854-30.074-16.448c-1.044-.571-1.902-1.429-2.473-2.473l-16.449-30.075c-2.36-4.315-8.557-4.315-10.916 0l-7.407 13.543 5.056 9.245c3.173 5.802 7.943 10.572 13.745 13.745 14.167 7.748 14.167 28.095 0 35.843-5.802 3.173-10.572 7.943-13.745 13.745l-5.056 9.245 7.407 13.543c2.36 4.315 8.557 4.315 10.916 0l16.448-30.074c.571-1.044 1.429-1.902 2.473-2.473l30.074-16.448c4.316-2.361 4.316-8.558.001-10.918z" fill="#fd8e09"/><path d="m459.768 132.483 16.448 30.074c.571 1.044 1.429 1.902 2.473 2.473l30.074 16.448c4.315 2.36 4.315 8.557 0 10.917l-30.074 16.448c-1.044.571-1.902 1.429-2.473 2.473l-16.448 30.074c-2.36 4.315-8.557 4.315-10.917 0l-16.448-30.074c-.571-1.044-1.429-1.902-2.473-2.473l-30.074-16.448c-4.315-2.36-4.315-8.557 0-10.917l30.074-16.448c1.044-.571 1.902-1.429 2.473-2.473l16.448-30.074c2.36-4.315 8.557-4.315 10.917 0z" fill="#fca309"/><path d="m508.764 181.479-30.074-16.448c-1.044-.571-1.902-1.429-2.473-2.473l-16.448-30.074c-2.36-4.315-8.557-4.315-10.916 0l-7.407 13.543 5.056 9.245c3.173 5.802 7.943 10.572 13.745 13.745 14.167 7.748 14.167 28.095 0 35.843-5.802 3.173-10.572 7.943-13.745 13.745l-5.056 9.245 7.407 13.543c2.36 4.315 8.557 4.315 10.916 0l16.448-30.074c.571-1.044 1.429-1.902 2.473-2.473l30.074-16.448c4.315-2.363 4.315-8.56 0-10.919z" fill="#fd8e09"/><g fill="#f13555"><path d="m301.503 511.189c1.159-24.542 9.934-119.701 75.961-253.392 5.394-10.921 19.488-14.077 28.985-6.45 7.66 6.152 9.385 17.133 3.955 25.32-21.661 32.658-74.184 119.118-107.38 234.764-.255.889-1.565.681-1.521-.242z"/><path d="m219.048 511.172c-3.173-41.805-19.481-205.868-85.179-305.959-5.981-9.112-18.419-11.263-27.072-4.634-8.041 6.161-9.737 17.605-3.795 25.81 22.981 31.735 76.356 118.782 114.516 285.002.216.936 1.603.738 1.53-.219z"/><path d="m254.467 511.265-17.35-327.816c-.573-10.821 8.047-19.909 18.883-19.909 10.87 0 19.503 9.143 18.878 19.996l-18.862 327.733c-.056.977-1.497.974-1.549-.004z"/></g></g></svg>