<svg id="Capa_1" enable-background="new 0 0 512.397 512.397" height="512" viewBox="0 0 512.397 512.397" width="512" xmlns="http://www.w3.org/2000/svg"><g><path d="m379.761 429.091c-4.142 0-7.5 3.358-7.5 7.5v67.362c0 4.142 3.358 7.5 7.5 7.5s7.5-3.358 7.5-7.5v-67.362c0-4.142-3.358-7.5-7.5-7.5z"/><path d="m413.678 131.143c-3.996 1.09-6.351 5.214-5.261 9.21 8.227 30.146 7.752 62.114-1.374 92.448l-34.465 114.569c-.211.701-.318 1.429-.318 2.161v55.097c0 4.142 3.358 7.5 7.5 7.5s7.5-3.358 7.5-7.5v-53.994l34.147-113.512c9.936-33.029 10.448-67.857 1.48-100.719-1.089-3.995-5.212-6.347-9.209-5.26z"/><path d="m201.965 413.501-74.58-.292c-9.159-.036-16.934-6.613-18.486-15.639l-12.691-73.767c-.619-3.599-3.74-6.229-7.392-6.229h-26.616c.246-21.663 6.406-42.801 17.852-61.216l9.102-14.644c2.106-3.389 3.056-7.282 2.749-11.26l-3.416-44.206c-2.559-33.119 5.14-65.568 22.264-93.84 2.146-3.543 1.013-8.155-2.529-10.301s-8.154-1.013-10.301 2.53c-18.757 30.969-27.191 66.505-24.389 102.766l3.416 44.205c.06.773-.125 1.53-.534 2.187l-9.102 14.643c-13.163 21.177-20.121 45.55-20.121 70.485 0 7.526 6.124 13.65 13.65 13.65h21.653l11.62 67.539c2.79 16.216 16.757 28.032 33.211 28.096l74.58.292c7.719.03 13.999 6.335 13.999 14.054v62.342c0 4.142 3.358 7.5 7.5 7.5s7.5-3.358 7.5-7.5v-62.342c.002-15.957-12.981-28.991-28.939-29.053z"/><path d="m264.967 9.483c.263-4.134-2.875-7.698-7.009-7.961-4.046-.257-8.082-.388-11.995-.388-48.591 0-95.22 20.625-127.932 56.586-2.788 3.064-2.563 7.808.501 10.595 1.438 1.308 3.244 1.952 5.045 1.952 2.039 0 4.07-.827 5.55-2.453 29.875-32.844 72.461-51.68 116.836-51.68 3.596 0 7.312.12 11.042.357 4.134.257 7.699-2.874 7.962-7.008z"/><path d="m386.991 219.651h2.188c4.142 0 7.5-3.358 7.5-7.5s-3.358-7.5-7.5-7.5h-1.959v-15.267c0-6.099-3.698-11.346-8.967-13.63v-22.953c0-4.735 2.085-9.274 5.72-12.452 17.408-15.218 27.392-37.188 27.392-60.278 0-14.474-3.922-28.674-11.341-41.066-2.127-3.554-6.732-4.71-10.288-2.583-3.554 2.128-4.71 6.734-2.583 10.288 6.026 10.065 9.211 21.601 9.211 33.361 0 18.762-8.115 36.616-22.265 48.985-6.894 6.026-10.847 14.681-10.847 23.745v21.731h-63.917v-21.725c0-9.043-3.992-17.734-10.951-23.843-14.32-12.572-22.396-30.7-22.156-49.736.212-16.823 6.915-32.748 18.871-44.841 11.958-12.094 27.804-18.973 44.619-19.37 13.481-.327 26.503 3.456 37.665 10.913 3.445 2.3 8.102 1.374 10.403-2.07s1.374-8.102-2.07-10.403c-13.742-9.181-29.783-13.823-46.352-13.436-20.72.489-40.228 8.948-54.932 23.819-14.701 14.869-22.942 34.472-23.204 55.198-.295 23.425 9.64 45.73 27.259 61.199 3.716 3.262 5.847 7.843 5.847 12.57v22.946c-5.269 2.284-8.967 7.531-8.967 13.63v15.267h-2.665c-4.142 0-7.5 3.358-7.5 7.5s3.358 7.5 7.5 7.5h2.894c1.788 15.686 14.208 28.183 29.857 30.094v3.047c0 14.248 11.592 25.84 25.84 25.84 14.249 0 25.84-11.592 25.84-25.84v-3.047c15.65-1.91 28.07-14.406 29.858-30.093zm-96.623-30.118h81.852v15.119h-81.852zm.399 30.118h81.054c-1.809 8.755-9.578 15.357-18.862 15.357h-43.33c-9.283.001-17.053-6.601-18.862-15.357zm51.367 33.141c0 5.977-4.863 10.84-10.84 10.84s-10.84-4.863-10.84-10.84v-2.783h21.68z"/><path d="m446.534 73.15c1.025 0 2.067-.211 3.063-.658l11.173-5.009c3.78-1.694 5.47-6.132 3.776-9.912s-6.133-5.47-9.912-3.776l-11.173 5.009c-3.78 1.694-5.47 6.132-3.776 9.912 1.249 2.783 3.984 4.434 6.849 4.434z"/><path d="m460.771 116.981-11.173-5.009c-3.778-1.695-8.218-.004-9.912 3.776-1.694 3.779-.004 8.217 3.776 9.912l11.173 5.009c.996.447 2.038.658 3.063.658 2.865 0 5.601-1.65 6.848-4.434 1.695-3.78.005-8.218-3.775-9.912z"/><path d="m198.312 67.483 11.173 5.009c.996.447 2.038.658 3.063.658 2.865 0 5.601-1.65 6.848-4.434 1.694-3.779.004-8.217-3.776-9.912l-11.173-5.009c-3.779-1.694-8.217-.004-9.912 3.776-1.693 3.779-.003 8.217 3.777 9.912z"/><path d="m194.536 126.892c1.248 2.784 3.983 4.434 6.848 4.434 1.025 0 2.067-.211 3.063-.658l11.173-5.009c3.78-1.694 5.47-6.132 3.776-9.912-1.695-3.78-6.132-5.471-9.912-3.776l-11.173 5.009c-3.779 1.695-5.469 6.133-3.775 9.912z"/></g></svg>